<mxfile host="app.diagrams.net" modified="2024-02-10T09:58:00.564Z" agent="Mozilla/5.0 (X11; Linux x86_64) AppleWebKit/537.36 (KHTML, like Gecko) Chrome/121.0.0.0 Safari/537.36" etag="GtKHxQR2C6_UK7im6Xtq" version="23.1.2" type="github">
  <diagram name="Page-1" id="90a13364-a465-7bf4-72fc-28e22215d7a0">
    <mxGraphModel dx="1364" dy="879" grid="1" gridSize="10" guides="1" tooltips="1" connect="1" arrows="1" fold="1" page="1" pageScale="1.5" pageWidth="1169" pageHeight="826" background="none" math="0" shadow="0">
      <root>
        <mxCell id="0" style=";html=1;" />
        <mxCell id="1" style=";html=1;" parent="0" />
        <mxCell id="3a17f1ce550125da-1" value="" style="whiteSpace=wrap;html=1;shadow=1;fontSize=20;fillColor=#f5f5f5;strokeColor=#666666;strokeWidth=2;dashed=1;" parent="1" vertex="1">
          <mxGeometry x="140" y="150" width="460" height="510" as="geometry" />
        </mxCell>
        <mxCell id="3a17f1ce550125da-4" value="Bibliographic metadata" style="whiteSpace=wrap;html=1;shadow=1;fontSize=18;fillColor=#d5e8d4;strokeColor=#82b366;" parent="1" vertex="1">
          <mxGeometry x="350" y="280" width="210" height="60" as="geometry" />
        </mxCell>
        <mxCell id="3a17f1ce550125da-5" value="Binary data" style="whiteSpace=wrap;html=1;shadow=1;fontSize=18;fillColor=#f8cecc;strokeColor=#b85450;" parent="1" vertex="1">
          <mxGeometry x="350" y="370" width="210" height="60" as="geometry" />
        </mxCell>
        <mxCell id="_ZWsoYf-q-NwRKAh8EJa-6" style="edgeStyle=orthogonalEdgeStyle;rounded=0;orthogonalLoop=1;jettySize=auto;html=1;entryX=0;entryY=0.5;entryDx=0;entryDy=0;" edge="1" parent="1" source="3a17f1ce550125da-6" target="3a17f1ce550125da-5">
          <mxGeometry relative="1" as="geometry" />
        </mxCell>
        <mxCell id="_ZWsoYf-q-NwRKAh8EJa-8" style="edgeStyle=orthogonalEdgeStyle;rounded=0;orthogonalLoop=1;jettySize=auto;html=1;entryX=0;entryY=0.5;entryDx=0;entryDy=0;" edge="1" parent="1" source="3a17f1ce550125da-6" target="_ZWsoYf-q-NwRKAh8EJa-7">
          <mxGeometry relative="1" as="geometry" />
        </mxCell>
        <mxCell id="_ZWsoYf-q-NwRKAh8EJa-10" style="edgeStyle=orthogonalEdgeStyle;rounded=0;orthogonalLoop=1;jettySize=auto;html=1;entryX=0;entryY=0.5;entryDx=0;entryDy=0;" edge="1" parent="1" source="3a17f1ce550125da-6" target="_ZWsoYf-q-NwRKAh8EJa-9">
          <mxGeometry relative="1" as="geometry" />
        </mxCell>
        <mxCell id="3a17f1ce550125da-6" value="Preservation and system metadata" style="whiteSpace=wrap;html=1;shadow=1;fontSize=18;fillColor=#dae8fc;strokeColor=#6c8ebf;" parent="1" vertex="1">
          <mxGeometry x="160" y="180" width="220" height="70" as="geometry" />
        </mxCell>
        <mxCell id="_ZWsoYf-q-NwRKAh8EJa-1" value="Digital object" style="text;html=1;align=center;verticalAlign=middle;resizable=0;points=[];autosize=1;strokeColor=none;fillColor=none;fontSize=20;" vertex="1" parent="1">
          <mxGeometry x="450" y="160" width="140" height="40" as="geometry" />
        </mxCell>
        <mxCell id="_ZWsoYf-q-NwRKAh8EJa-3" style="edgeStyle=orthogonalEdgeStyle;rounded=0;orthogonalLoop=1;jettySize=auto;html=1;entryX=0;entryY=0.633;entryDx=0;entryDy=0;entryPerimeter=0;" edge="1" parent="1" target="3a17f1ce550125da-4">
          <mxGeometry relative="1" as="geometry">
            <mxPoint x="270" y="270" as="sourcePoint" />
            <Array as="points">
              <mxPoint x="270" y="318" />
            </Array>
          </mxGeometry>
        </mxCell>
        <mxCell id="_ZWsoYf-q-NwRKAh8EJa-7" value="Other datastreams..." style="whiteSpace=wrap;html=1;shadow=1;fontSize=18;fillColor=#f5f5f5;fontColor=#333333;strokeColor=#666666;" vertex="1" parent="1">
          <mxGeometry x="350" y="460" width="210" height="60" as="geometry" />
        </mxCell>
        <mxCell id="_ZWsoYf-q-NwRKAh8EJa-9" value="..." style="whiteSpace=wrap;html=1;shadow=1;fontSize=18;fillColor=#f5f5f5;strokeColor=#666666;fontColor=#333333;" vertex="1" parent="1">
          <mxGeometry x="350" y="550" width="210" height="60" as="geometry" />
        </mxCell>
        <mxCell id="_ZWsoYf-q-NwRKAh8EJa-11" style="edgeStyle=orthogonalEdgeStyle;rounded=0;orthogonalLoop=1;jettySize=auto;html=1;exitX=0.5;exitY=1;exitDx=0;exitDy=0;" edge="1" parent="1" source="3a17f1ce550125da-1" target="3a17f1ce550125da-1">
          <mxGeometry relative="1" as="geometry" />
        </mxCell>
      </root>
    </mxGraphModel>
  </diagram>
</mxfile>
